<?xml version="1.0" encoding="UTF-8"?>
<svg width="168.74mm" height="62.309mm" version="1.1" viewBox="0 0 168.74 62.309" xmlns="http://www.w3.org/2000/svg" xmlns:cc="http://creativecommons.org/ns#" xmlns:dc="http://purl.org/dc/elements/1.1/" xmlns:rdf="http://www.w3.org/1999/02/22-rdf-syntax-ns#">
 <metadata>
  <rdf:RDF>
   <cc:Work rdf:about="">
    <dc:format>image/svg+xml</dc:format>
    <dc:type rdf:resource="http://purl.org/dc/dcmitype/StillImage"/>
    <dc:title/>
   </cc:Work>
  </rdf:RDF>
 </metadata>
 <g transform="translate(-7.6603 -23.845)">
  <g>
   <g fill="none" stroke="#f00" stroke-width="2">
    <path d="m8.6603 40 25.981-15 25.981 15v30l-25.981 15-25.981-15z"/>
    <path d="m8.6603 40 6.9282 16-6.9282 14"/>
    <path d="m15.588 56 19.053 28 10.392-13 15.588-1"/>
    <path d="m45.033 71-29.445-15"/>
    <path d="m60.622 40-11.258 8.5 11.258 21.5"/>
    <path d="m15.588 56 33.775-7.5-4.3301 22.5"/>
    <path d="m34.641 25-19.053 31"/>
    <path d="m49.363 48.5-14.722-23.5"/>
   </g>
   <g stroke-width="1.1869" aria-label="ReQuests">
    <path d="m76.334 61.522h-3.6081v-16.569h7.8571q1.1394 0 2.0652 0.3798t1.5667 1.0919q0.66465 0.68838 1.0207 1.6616 0.35606 0.97323 0.35606 2.1601 0 1.6854-0.7596 2.9434-0.73586 1.2581-2.2551 1.8278l3.252 6.504h-4.0116l-2.896-6.0768h-2.5874zm3.798-9.1152q0.80707 0 1.2581-0.40354 0.47475-0.42727 0.47475-1.2343v-1.0444q0-0.80707-0.47475-1.2106-0.45101-0.42727-1.2581-0.42727h-3.798v4.3202z"/>
    <path d="m93.359 61.806q-1.4242 0-2.5399-0.45101-1.1157-0.47475-1.899-1.3056-0.7596-0.85455-1.1631-2.0652-0.3798-1.2106-0.3798-2.7061 0-1.4717 0.3798-2.6586 0.3798-1.2106 1.1157-2.0652 0.7596-0.85455 1.8515-1.3056 1.0919-0.47475 2.4924-0.47475 1.5429 0 2.6349 0.52222 1.1157 0.52222 1.804 1.4005 0.71212 0.87828 1.0207 2.0414 0.33232 1.1394 0.33232 2.3975v1.0444h-7.9995v0.1899q0 1.2343 0.66465 1.9702 0.66465 0.71212 2.0889 0.71212 1.0919 0 1.7803-0.42727 0.68838-0.45101 1.2818-1.0682l1.7566 2.1838q-0.83081 0.97323-2.1838 1.5192-1.3293 0.54596-3.0384 0.54596zm-0.07121-10.444q-1.0682 0-1.6854 0.71212-0.59344 0.68838-0.59344 1.8515v0.1899h4.3677v-0.21364q0-1.1394-0.52222-1.8278-0.49848-0.71212-1.5667-0.71212z"/>
    <path d="m112.74 65.889h-2.2313q-1.9227 0-2.801-0.90202-0.87829-0.90202-0.87829-2.6111v-0.68838q-2.6586-0.47475-4.2252-2.5874-1.5429-2.1364-1.5429-5.8631 0-2.1126 0.52222-3.703 0.52222-1.6141 1.4717-2.6823 0.94949-1.0919 2.3025-1.6379 1.353-0.54596 2.9909-0.54596t2.9909 0.54596 2.3025 1.6379q0.94949 1.0682 1.4717 2.6823 0.52222 1.5904 0.52222 3.703 0 3.6081-1.4717 5.7207-1.448 2.1126-3.9642 2.6586v1.3293h2.5399zm-4.3914-7.2874q1.6379 0 2.5399-1.0682 0.92576-1.0682 0.92576-3.0621v-2.4687q0-1.9939-0.92576-3.0621-0.90202-1.0682-2.5399-1.0682t-2.5636 1.0682q-0.90202 1.0682-0.90202 3.0621v2.4687q0 1.9939 0.90202 3.0621 0.92576 1.0682 2.5636 1.0682z"/>
    <path d="m125.84 59.433h-0.11868q-0.16617 0.47475-0.45102 0.90202-0.26111 0.42727-0.68838 0.7596-0.42727 0.33232-1.0207 0.52222-0.5697 0.1899-1.3293 0.1899-1.9227 0-2.9197-1.2581-0.97324-1.2818-0.97324-3.6556v-7.8333h3.5131v7.5248q0 1.1394 0.40354 1.7566 0.40353 0.61717 1.3768 0.61717 0.40354 0 0.80708-0.11869 0.40353-0.11869 0.71212-0.33232 0.30858-0.23737 0.49848-0.5697 0.1899-0.33232 0.1899-0.78333v-8.0945h3.5131v12.462h-3.5131z"/>
    <path d="m137.82 61.806q-1.4242 0-2.5399-0.45101-1.1156-0.47475-1.899-1.3056-0.7596-0.85455-1.1631-2.0652-0.3798-1.2106-0.3798-2.7061 0-1.4717 0.3798-2.6586 0.3798-1.2106 1.1157-2.0652 0.75959-0.85455 1.8515-1.3056 1.0919-0.47475 2.4924-0.47475 1.5429 0 2.6348 0.52222 1.1157 0.52222 1.804 1.4005 0.71213 0.87828 1.0207 2.0414 0.33233 1.1394 0.33233 2.3975v1.0444h-7.9995v0.1899q0 1.2343 0.66465 1.9702 0.66465 0.71212 2.0889 0.71212 1.0919 0 1.7803-0.42727 0.68838-0.45101 1.2818-1.0682l1.7566 2.1838q-0.83081 0.97323-2.1838 1.5192-1.3293 0.54596-3.0384 0.54596zm-0.0712-10.444q-1.0682 0-1.6854 0.71212-0.59344 0.68838-0.59344 1.8515v0.1899h4.3677v-0.21364q0-1.1394-0.52222-1.8278-0.49848-0.71212-1.5667-0.71212z"/>
    <path d="m150.2 61.806q-1.804 0-3.0384-0.5697-1.2343-0.59344-2.2076-1.6616l2.0652-2.0889q0.66464 0.73586 1.4717 1.1631 0.80707 0.42727 1.8278 0.42727 1.0444 0 1.448-0.30859 0.40353-0.33232 0.40353-0.87828 0-0.87828-1.2581-1.0444l-1.353-0.16616q-4.2015-0.52222-4.2015-3.8455 0-0.90202 0.33232-1.6379 0.35606-0.7596 0.97324-1.2818 0.64091-0.54596 1.5192-0.83081 0.90202-0.30859 2.0177-0.30859 0.97323 0 1.7091 0.14242 0.7596 0.11869 1.3293 0.3798 0.59343 0.23737 1.0682 0.61717 0.49848 0.35606 0.97323 0.80707l-2.0177 2.0652q-0.59343-0.59344-1.353-0.92576-0.73586-0.35606-1.5192-0.35606-0.90202 0-1.2818 0.28485t-0.3798 0.7596q0 0.49848 0.26111 0.78333 0.28485 0.26111 1.0444 0.3798l1.4005 0.1899q4.1066 0.54596 4.1066 3.7505 0 0.90202-0.37979 1.6616-0.3798 0.7596-1.0919 1.3293-0.68838 0.54596-1.6854 0.85455-0.97323 0.30859-2.1838 0.30859z"/>
    <path d="m162.12 61.522q-1.8278 0-2.7773-0.92576-0.92576-0.92576-0.92576-2.7061v-6.1005h-1.7566v-2.7298h0.87828q0.71212 0 0.97324-0.33232 0.26111-0.35606 0.26111-0.99697v-2.0414h3.1571v3.3707h2.4687v2.7298h-2.4687v7.0025h2.2788v2.7298z"/>
    <path d="m171.06 61.806q-1.804 0-3.0384-0.5697-1.2344-0.59344-2.2076-1.6616l2.0652-2.0889q0.66465 0.73586 1.4717 1.1631 0.80707 0.42727 1.8278 0.42727 1.0444 0 1.448-0.30859 0.40354-0.33232 0.40354-0.87828 0-0.87828-1.2581-1.0444l-1.353-0.16616q-4.2015-0.52222-4.2015-3.8455 0-0.90202 0.33233-1.6379 0.35606-0.7596 0.97323-1.2818 0.64091-0.54596 1.5192-0.83081 0.90202-0.30859 2.0177-0.30859 0.97324 0 1.7091 0.14242 0.75959 0.11869 1.3293 0.3798 0.59344 0.23737 1.0682 0.61717 0.49849 0.35606 0.97324 0.80707l-2.0177 2.0652q-0.59344-0.59344-1.353-0.92576-0.73586-0.35606-1.5192-0.35606-0.90202 0-1.2818 0.28485-0.37979 0.28485-0.37979 0.7596 0 0.49848 0.26111 0.78333 0.28485 0.26111 1.0444 0.3798l1.4005 0.1899q4.1066 0.54596 4.1066 3.7505 0 0.90202-0.3798 1.6616-0.3798 0.7596-1.0919 1.3293-0.68838 0.54596-1.6854 0.85455-0.97324 0.30859-2.1838 0.30859z"/>
   </g>
  </g>
 </g>
</svg>
